<svg width="31" height="32" viewBox="0 0 31 32" fill="none" xmlns="http://www.w3.org/2000/svg">
<path d="M29.7642 10.3052L29.6428 10.5237L29.7642 10.3052L25.75 8.07508V4.33333C25.75 3.38297 25.3725 2.47154 24.7005 1.79953C24.0285 1.12753 23.117 0.75 22.1667 0.75H8.83333C7.88297 0.75 6.97154 1.12753 6.29953 1.79953C5.62753 2.47154 5.25 3.38297 5.25 4.33333V8.07508L1.23582 10.3052L1.23581 10.3052C0.937034 10.4712 0.688082 10.7141 0.514751 11.0087C0.341419 11.3032 0.250011 11.6388 0.25 11.9806V26C0.25 27.3924 0.803124 28.7277 1.78769 29.7123C2.77226 30.6969 4.10761 31.25 5.5 31.25H25.5C26.8924 31.25 28.2277 30.6969 29.2123 29.7123C30.1969 28.7277 30.75 27.3924 30.75 26V11.9806C30.75 11.6388 30.6586 11.3032 30.4852 11.0087C30.3119 10.7141 30.063 10.4712 29.7642 10.3052ZM2.41667 12.1277L5.25 10.5537V14.2498L5.18071 14.2125L5.18055 14.2124C4.92752 14.0764 4.63084 14.0464 4.3557 14.129C4.08055 14.2116 3.84946 14.4 3.7132 14.6529C3.57694 14.9058 3.54666 15.2025 3.62901 15.4777C3.71136 15.7529 3.89961 15.9842 4.15238 16.1207L4.15264 16.1208L14.986 21.9542L14.9864 21.9544C15.1444 22.039 15.3208 22.0833 15.5 22.0833C15.6792 22.0833 15.8556 22.039 16.0136 21.9544L16.014 21.9542L26.8474 16.1208L26.8476 16.1207C27.1004 15.9842 27.2886 15.7529 27.371 15.4777C27.4533 15.2025 27.4231 14.9058 27.2868 14.6529C27.1505 14.4 26.9194 14.2116 26.6443 14.129C26.3692 14.0464 26.0725 14.0764 25.8195 14.2124L25.8193 14.2125L25.75 14.2498V10.5537L28.5833 12.1277V25.9997C28.5824 26.8173 28.2572 27.601 27.6791 28.1791C27.101 28.7572 26.3173 29.0824 25.4997 29.0833H5.50029C4.68275 29.0824 3.89896 28.7572 3.32087 28.1791C2.74281 27.6011 2.41763 26.8173 2.41667 25.9998C2.41667 25.9998 2.41667 25.9997 2.41667 25.9997L2.41667 12.1277ZM8.83362 2.91667H22.1664C22.1664 2.91667 22.1664 2.91667 22.1665 2.91667C22.5421 2.91712 22.9022 3.06655 23.1678 3.33216C23.4335 3.5978 23.5829 3.95795 23.5833 4.33362V15.4166L15.5 19.7696L7.41667 15.4166V4.33362C7.4171 3.95795 7.56652 3.5978 7.83216 3.33216C8.09777 3.06655 8.45789 2.91712 8.83352 2.91667C8.83355 2.91667 8.83359 2.91667 8.83362 2.91667Z" fill="white" stroke="white" stroke-width="0.5"/>
<path d="M18.5 7.75465H16.4599V7.82768C16.6174 7.93584 16.7499 8.0756 16.8485 8.23777C16.9472 8.39994 17.0099 8.58084 17.0324 8.76856H18.5V9.51469H17.041C16.9174 10.4312 16.0618 11.1396 15.0319 11.164H14.9478L17.1845 14H15.8937L13.5 10.9449V10.4848H14.4063C15.2928 10.4848 15.9085 10.1111 16.0025 9.51104H13.5049V8.76491H15.9975C15.9085 8.17336 15.4115 7.81429 14.6771 7.81429H13.5049V7H18.5V7.75465Z" fill="#3BFFD0"/>
</svg>
